# AST/ASF file generated using VICON BodyLanguage
# -----------------------------------------------
:version 1.10
:name VICON
:units
  mass 1.0
  length 0.45
  angle deg
:documentation
   .ast/.asf automatically generated from VICON data using
   VICON BodyBuilder and BodyLanguage model FoxedUp or BRILLIANT.MOD
:root
   order TX TY TZ RX RY RZ
   axis XYZ
   position 0 0 0  
   orientation 0 0 0 
:bonedata
  begin
     id 1 
     name lhipjoint
     direction 0.598477 -0.721498 0.348234 
     length 2.38516 
     axis 0 0 0  XYZ
  end
  begin
     id 2 
     name lfemur
     direction 0.34202 -0.939693 0  
     length 6.81097  
     axis 0 0 20  XYZ
    dof rx ry rz
    limits (-160.0 20.0)
           (-70.0 70.0)
           (-60.0 70.0)
  end
  begin
     id 3 
     name ltibia
     direction 0.34202 -0.939693 0   
     length 7.43697   
     axis 0 0 20   XYZ
    dof rx
    limits (-10.0 170.0)
  end
  begin
     id 4 
     name lfoot
     direction 0.0644912 -0.177188 0.982062   
     length 2.0384   
     axis -90 7.62852e-016 20   XYZ
    dof rx rz
    limits (-45.0 90.0)
           (-70.0 20.0)
  end
  begin
     id 5 
     name ltoes
     direction 1.53517e-011 -4.21905e-011 1   
     length 1.02854   
     axis -90 7.62852e-016 20   XYZ
    dof rx
    limits (-90.0 20.0)
  end
  begin
     id 6 
     name rhipjoint
     direction -0.591517 -0.726138 0.350474   
     length 2.36992  
     axis 0 0 0  XYZ 
  end
  begin
     id 7 
     name rfemur
     direction -0.34202 -0.939693 0   
     length 6.93503   
     axis 0 0 -20   XYZ
    dof rx ry rz
    limits (-160.0 20.0)
           (-70.0 70.0)
           (-70.0 60.0)
  end
  begin
     id 8 
     name rtibia
     direction -0.34202 -0.939693 0   
     length 7.45107   
     axis 0 0 -20   XYZ
    dof rx
    limits (-10.0 170.0)
 end
 begin
     id 9 
     name rfoot
     direction -0.0677555 -0.186157 0.980181   
     length 1.90244  
     axis -90 -7.62852e-016 -20   XYZ
    dof rx rz
    limits (-45.0 90.0)
           (-20.0 70.0)
  end
  begin
     id 10 
     name rtoes
     direction -1.53409e-011 -4.21428e-011 1   
     length 0.961454   
     axis -90 -7.62852e-016 -20   XYZ
    dof rx
    limits (-90.0 20.0)
  end
  begin
     id 11 
     name lowerback
     direction -0.0289484 0.992437 0.119291   
     length 1.96261   
     axis 0 0 0   XYZ
    dof rx ry rz
    limits (-20.0 45.0)
           (-30.0 30.0)
           (-30.0 30.0)
  end
  begin
     id 12 
     name upperback
     direction 0.0109352 0.999834 0.0146028   
     length 1.96894   
     axis 0 0 0   XYZ
    dof rx ry rz
    limits (-20.0 45.0)
           (-30.0 30.0)
           (-30.0 30.0)
  end
  begin
     id 13 
     name thorax
     direction 0.0232227 0.998895 -0.0408582   
     length 2.00029   
     axis 0 0 0   XYZ
    dof rx ry rz
    limits (-20.0 45.0)
           (-30.0 30.0)
           (-30.0 30.0)
  end
  begin
     id 14 
     name lowerneck
     direction -0.00291659 0.999583 0.0287188   
     length 1.72722   
     axis 0 0 0   XYZ
    dof rx ry rz
    limits (-20.0 45.0)
           (-30.0 30.0)
           (-30.0 30.0)
  end
  begin
     id 15 
     name upperneck
     direction 0.0277639 0.998467 -0.0478817   
     length 1.68525   
     axis 0 0 0   XYZ
    dof rx ry rz
    limits (-20.0 45.0)
           (-30.0 30.0)
           (-30.0 30.0)
  end
  begin
     id 16
     name head
     direction 0.00895921 0.999741 -0.020943  
     length 1.78934  
     axis 0 0 0   XYZ
    dof rx ry rz
    limits (-20.0 45.0)
           (-30.0 30.0)
           (-30.0 30.0)
  end
  begin
     id 17 
     name lclavicle
     direction 0.907972 0.393865 -0.143029  
     length 3.37543  
     axis 0 0 0   XYZ
    dof ry rz
    limits (-20.0 10.0)
           (0.0 20.0)
  end
  begin
     id 18 
     name lhumerus
     direction 1 -4.48915e-011 -1.10425e-027   
     length 4.94762   
     axis -180 -30 -90   XYZ
    dof rx ry rz
    limits (-60.0 90.0)
           (-90.0 90.0)
           (-90.0 90.0)
  end
  begin
     id 19
     name lradius
     direction 1 1.63657e-005 -9.44877e-006   
     length 3.11144   
     axis -180 -30 -90   XYZ
    dof rx
    limits (-10.0 170.0)
  end
  begin
     id 20
     name lwrist
     direction 1 -5.04565e-007 -1.8883e-005   
     length 1.55572   
     axis 1.22104e-015 90 90   XYZ
    dof ry
    limits (-180.0 0.0)
 end
  begin
     id 21 
     name lhand
     direction 1 -4.48949e-011 -2.20333e-027   
     length 0.686387   
     axis 1.40591e-015 90 90   XYZ
    dof rx rz
    limits (-90.0 90.0)
           (-45.0 45.0)
  end
  begin
     id 22 
     name lfingers
     direction 1 -4.49191e-011 -4.40665e-027   
     length 0.553383   
     axis 2.81182e-015 90 90   XYZ
    dof rx
    limits (0.0 90.0)
  end
  begin
     id 23
     name lthumb
     direction 0.707107 -6.35116e-011 0.707107   
     length 0.79455   
     axis -90 45 2.85299e-015   XYZ
    dof rx rz
    limits (-45.0 45.0)
           (-45.0 45.0)
  end
  begin
     id 24 
     name rclavicle
     direction -0.947168 0.319303 -0.0302977   
     length 3.53547  
     axis 0 0 0   XYZ 
    dof ry rz
    limits (-10.0 20.0)
           (-20.0 0.0)
  end
  begin
     id 25 
     name rhumerus
     direction -1 -0.000401632 0.000196042  
     length 4.77566   
     axis -180 30 90   XYZ
    dof rx ry rz
    limits (-90.0 60.0)
           (-90.0 90.0)
           (-90.0 90.0)
  end
  begin
     id 26 
     name rradius
     direction -1 -4.49012e-011 -4.87197e-027   
     length 3.21433   
     axis -180 30 90   XYZ
    dof rx
    limits (-10.0 170.0)
  end
  begin
     id 27 
     name rwrist
     direction -1 -4.48899e-011 -5.86351e-027   
     length 1.60716   
     axis 3.17445e-015 -90 -90   XYZ
    dof ry
    limits (-180.0 0.0)
  end
  begin
     id 28
     name rhand
     direction -0.999958 0.00678358 -0.00613214   
     length 0.625487   
     axis 7.48284e-015 -90 -90   XYZ
    dof rx rz
    limits (-90.0 90.0)
           (-45.0 45.0)
  end
  begin
     id 29
     name rfingers
     direction -1 -4.48756e-011 -2.3454e-026   
     length 0.505648   
     axis 1.49657e-014 -90 -90   XYZ
    dof rx
    limits (0.0 90.0)
  end
  begin
     id 30
     name rthumb
     direction -0.708559 0.00587598 0.705627   
     length 0.722099   
     axis -90 -45 -2.85299e-015   XYZ
    dof rx rz
    limits (-45.0 45.0)
           (-45.0 45.0)
  end
:hierarchy
  begin
    root lhipjoint rhipjoint lowerback
    lhipjoint lfemur
    lfemur ltibia
    ltibia lfoot
    lfoot ltoes
    rhipjoint rfemur
    rfemur rtibia
    rtibia rfoot
    rfoot rtoes
    lowerback upperback
    upperback thorax
    thorax lowerneck lclavicle rclavicle
    lowerneck upperneck
    upperneck head
    lclavicle lhumerus
    lhumerus lradius
    lradius lwrist
    lwrist lhand lthumb
    lhand lfingers
    rclavicle rhumerus
    rhumerus rradius
    rradius rwrist
    rwrist rhand rthumb
    rhand rfingers
  end

#!OML:ASF C:\Documents and Settings\Administrator\Desktop\SteveTeapot.ASF
:FULLY-SPECIFIED
:DEGREES
51
root 0.482518 16.5273 -7.30629 19.3119 -2.62328 0.844663
lowerback -17.4249 -1.1889 -2.70061
upperback -5.32322 -1.19318 1.52947
thorax 4.14487 -0.589555 2.90684
lowerneck -5.30407 -1.37574 -1.20162
upperneck 9.5668 -1.72116 -0.216248
head 4.08348 -0.905628 0.0510378
rclavicle -3.60297e-016 1.23246e-014
rhumerus -33.2695 3.89121 -90.6999
rradius 22.7721
rwrist 9.66679
rhand -15.6617 -30.8162
rfingers 7.12502
rthumb 10.5265 -60.5326
lclavicle -3.60297e-016 1.23246e-014
lhumerus -34.9803 -3.00178 91.4205
lradius 22.6841
lwrist -15.1542
lhand -28.5453 -27.671
lfingers 7.12502
lthumb -1.91254 2.3002
rfemur -32.0656 -10.8713 22.7302
rtibia 36.6056
rfoot -25.4316 -0.642147
rtoes -13.8034
lfemur -31.0645 8.06018 -23.9947
ltibia 34.5447
lfoot -21.8691 2.47222
ltoes -9.64521
52
root 0.477551 16.5272 -7.30845 19.3096 -2.61526 0.965786
lowerback -17.4187 -1.2377 -2.90363
upperback -5.31423 -1.22229 1.52063
thorax 4.15627 -0.604362 3.00703
lowerneck -5.32691 -1.38068 -1.19659
upperneck 9.55764 -1.72618 -0.233908
head 4.08453 -0.908705 0.0438707
rclavicle -1.09953e-015 -2.38542e-015
rhumerus -33.2839 4.15915 -90.8162
rradius 22.9414
rwrist 9.42655
rhand -15.5607 -30.9681
rfingers 7.12502
rthumb 10.624 -60.6796
lclavicle -1.09953e-015 -2.38542e-015
lhumerus -34.9877 -2.65144 91.2496
lradius 22.7983
lwrist -15.8384
lhand -29.02 -27.6553
lfingers 7.12502
lthumb -2.37104 2.31127
rfemur -32.055 -10.692 22.575
rtibia 36.572
rfoot -25.3543 -0.783705
rtoes -13.3562
lfemur -31.1027 8.10577 -24.1219
ltibia 34.5669
lfoot -21.9097 2.4238
ltoes -10.0039
53
root 0.477229 16.529 -7.30235 19.2543 -2.53581 0.973794
lowerback -17.5065 -1.25147 -2.87546
upperback -5.23128 -1.24148 1.50353
thorax 4.29174 -0.617003 2.96762
lowerneck -5.34884 -1.38421 -1.22031
upperneck 9.48035 -1.7339 -0.17971
head 4.06221 -0.910535 0.0659278
rclavicle -5.02552e-015 -2.22639e-014
rhumerus -33.1975 4.31178 -90.8928
rradius 22.9833
rwrist 9.32974
rhand -15.406 -31.0832
rfingers 7.12502
rthumb 10.7731 -60.787
lclavicle -5.02552e-015 -2.22639e-014
lhumerus -34.9218 -2.63974 91.2243
lradius 22.8589
lwrist -15.9068
lhand -29.3615 -27.6009
lfingers 7.12502
lthumb -2.70079 2.36179
rfemur -31.9643 -10.8328 22.5883
rtibia 36.5682
rfoot -25.3655 -0.74053
rtoes -13.111
lfemur -31.0343 8.07069 -24.1071
ltibia 34.5636
lfoot -21.914 2.50202
ltoes -10.7143
54
root 0.474499 16.5287 -7.30383 19.2735 -2.59442 0.938492
lowerback -17.5355 -1.2188 -2.85908
upperback -5.21556 -1.20006 1.49417
thorax 4.32038 -0.597216 2.95677
lowerneck -5.34736 -1.37886 -1.2475
upperneck 9.44337 -1.7313 -0.108521
head 4.04982 -0.906786 0.0947525
rclavicle 1.45113e-014 3.57812e-015
rhumerus -33.1199 4.39541 -90.9533
rradius 22.989
rwrist 9.2834
rhand -15.4322 -31.1035
rfingers 7.12502
rthumb 10.7479 -60.8086
lclavicle 1.45113e-014 3.57812e-015
lhumerus -34.8622 -2.82043 91.2607
lradius 22.8282
lwrist -15.8368
lhand -29.5931 -27.6996
lfingers 7.12502
lthumb -2.92454 2.26013
rfemur -31.9974 -10.6885 22.608
rtibia 36.5952
rfoot -25.3785 -0.733877
rtoes -13.2081
lfemur -31.0551 8.00958 -24.0471
ltibia 34.5382
lfoot -21.8754 2.55706
ltoes -10.3388
55
root 0.469081 16.5278 -7.30978 19.2823 -2.63958 0.927233
lowerback -17.4728 -1.22171 -2.89106
upperback -5.22707 -1.20001 1.49061
thorax 4.27532 -0.596468 2.97175
lowerneck -5.38957 -1.3496 -1.23421
upperneck 9.47591 -1.69415 -0.0922556
head 4.06964 -0.8873 0.0992967
rclavicle -4.44781e-015 7.95139e-015
rhumerus -33.0938 4.33717 -90.9716
rradius 23.0013
rwrist 9.5915
rhand -15.6979 -30.6713
rfingers 7.12502
rthumb 10.4916 -60.3895
lclavicle -4.44781e-015 7.95139e-015
lhumerus -34.8718 -2.89854 91.2699
lradius 22.8647
lwrist -15.7799
lhand -30.1396 -27.5993
lfingers 7.12502
lthumb -3.45222 2.35247
rfemur -32.0182 -10.3081 22.5698
rtibia 36.6127
rfoot -25.314 -1.05512
rtoes -13.6714
lfemur -31.126 8.04124 -24.0198
ltibia 34.5182
lfoot -21.7558 2.51589
ltoes -10.0374
56
root 0.467874 16.5288 -7.31354 19.2881 -2.59419 1.10446
lowerback -17.3864 -1.28092 -3.06862
upperback -5.2794 -1.24739 1.44212
thorax 4.1792 -0.61794 3.01234
lowerneck -5.39412 -1.32705 -1.19927
upperneck 9.5159 -1.66792 -0.0830469
head 4.08437 -0.872798 0.0973518
rclavicle 1.45858e-014 -4.37326e-015
rhumerus -33.1859 4.30615 -91.0002
rradius 23.1082
rwrist 9.72559
rhand -15.9197 -30.4455
rfingers 7.12502
rthumb 10.2776 -60.1744
lclavicle 1.45858e-014 -4.37326e-015
lhumerus -34.9919 -2.90539 91.2782
lradius 22.9498
lwrist -15.5683
lhand -30.5196 -27.297
lfingers 7.12502
lthumb -3.81924 2.64853
rfemur -32.0332 -10.3403 22.3818
rtibia 36.6195
rfoot -25.2496 -1.04309
rtoes -13.4018
lfemur -31.1559 8.05459 -24.2192
ltibia 34.5166
lfoot -21.7125 2.42466
ltoes -10.3679
